<svg width="18" height="18" viewBox="0 0 18 18" fill="none" xmlns="http://www.w3.org/2000/svg">
<path d="M6.6499 10.3358C6.6499 11.6785 7.75481 12.7834 9.09747 12.7834C10.4401 12.7834 11.545 11.6785 11.545 10.3358" stroke="#333F72" stroke-width="1.04896" stroke-miterlimit="10" stroke-linecap="round" stroke-linejoin="round"/>
<path d="M6.86645 1.76929L4.33496 4.30777" stroke="#333F72" stroke-width="1.04896" stroke-miterlimit="10" stroke-linecap="round" stroke-linejoin="round"/>
<path d="M11.3281 1.76929L13.8596 4.30777" stroke="#333F72" stroke-width="1.04896" stroke-miterlimit="10" stroke-linecap="round" stroke-linejoin="round"/>
<path d="M2.104 5.86024C2.104 4.56652 2.79632 4.46162 3.65646 4.46162H14.5377C15.3978 4.46162 16.0901 4.56652 16.0901 5.86024C16.0901 7.36374 15.3978 7.25885 14.5377 7.25885H3.65646C2.79632 7.25885 2.104 7.36374 2.104 5.86024Z" stroke="#333F72" stroke-width="1.04896"/>
<path d="M3.15332 7.36374L4.13934 13.4057C4.36312 14.7624 4.90158 15.7554 6.9016 15.7554H11.1184C13.2933 15.7554 13.6149 14.8044 13.8667 13.4897L15.0415 7.36374" stroke="#333F72" stroke-width="1.04896" stroke-linecap="round"/>
</svg>
